<svg width="91" height="25" viewBox="0 0 91 25" fill="none" xmlns="http://www.w3.org/2000/svg">
<path d="M5.168 9.12C4.464 9.12 3.812 9.016 3.212 8.808C2.612 8.6 2.084 8.304 1.628 7.92C1.18 7.528 0.832 7.068 0.584 6.54C0.336 6.004 0.212 5.412 0.212 4.764C0.212 4.132 0.34 3.552 0.596 3.024C0.852 2.496 1.204 2.036 1.652 1.644C2.1 1.252 2.624 0.951999 3.224 0.744C3.832 0.536 4.484 0.431999 5.18 0.431999C5.676 0.431999 6.152 0.491999 6.608 0.611999C7.072 0.723999 7.5 0.879999 7.892 1.08C8.292 1.272 8.628 1.492 8.9 1.74L7.712 3.312C7.504 3.128 7.272 2.96 7.016 2.808C6.76 2.656 6.472 2.536 6.152 2.448C5.832 2.36 5.472 2.316 5.072 2.316C4.72 2.316 4.38 2.372 4.052 2.484C3.732 2.588 3.436 2.744 3.164 2.952C2.9 3.16 2.692 3.42 2.54 3.732C2.388 4.044 2.312 4.396 2.312 4.788C2.312 5.18 2.392 5.532 2.552 5.844C2.712 6.156 2.932 6.416 3.212 6.624C3.492 6.832 3.812 6.992 4.172 7.104C4.54 7.208 4.924 7.26 5.324 7.26C5.724 7.26 6.084 7.208 6.404 7.104C6.724 6.992 7.008 6.856 7.256 6.696C7.512 6.528 7.736 6.372 7.928 6.228L8.888 7.8C8.664 8 8.36 8.204 7.976 8.412C7.592 8.612 7.16 8.78 6.68 8.916C6.2 9.052 5.696 9.12 5.168 9.12ZM10.4976 9L14.4336 0.599999H16.3056L20.2176 9H18.1176L15.8856 4.224C15.8136 4.048 15.7376 3.876 15.6576 3.708C15.5856 3.54 15.5176 3.376 15.4536 3.216C15.3976 3.056 15.3416 2.896 15.2856 2.736C15.2296 2.568 15.1776 2.404 15.1296 2.244L15.5616 2.232C15.5056 2.408 15.4496 2.58 15.3936 2.748C15.3376 2.916 15.2736 3.08 15.2016 3.24C15.1376 3.4 15.0696 3.564 14.9976 3.732C14.9256 3.892 14.8496 4.06 14.7696 4.236L12.5496 9H10.4976ZM12.3336 7.476L12.9936 5.94H17.6976L18.0696 7.476H12.3336ZM22.5612 9V0.599999H24.3852L28.0092 5.412L26.8092 5.4L30.4332 0.599999H32.2332V9H30.2532V6.3C30.2532 5.62 30.2692 4.988 30.3012 4.404C30.3332 3.82 30.3972 3.232 30.4932 2.64L30.6972 3.3L27.7932 6.96H27.0012L24.0732 3.288L24.3012 2.64C24.3972 3.224 24.4612 3.808 24.4932 4.392C24.5252 4.968 24.5412 5.604 24.5412 6.3V9H22.5612ZM35.9236 9V7.224H37.9396V2.376H35.9236V0.599999H42.0196V2.376H39.9796V7.224H42.0196V9H35.9236ZM45.7057 9V0.599999H47.6257L53.2297 6.6L52.9297 6.54C52.8817 6.244 52.8417 5.964 52.8097 5.7C52.7857 5.428 52.7657 5.168 52.7497 4.92C52.7337 4.672 52.7177 4.428 52.7017 4.188C52.6937 3.948 52.6897 3.704 52.6897 3.456C52.6897 3.2 52.6897 2.94 52.6897 2.676V0.599999H54.6697V9H52.7257L46.9297 2.808L47.4457 2.892C47.4777 3.084 47.5017 3.272 47.5177 3.456C47.5417 3.64 47.5657 3.832 47.5897 4.032C47.6137 4.224 47.6337 4.428 47.6497 4.644C47.6657 4.86 47.6737 5.096 47.6737 5.352C47.6817 5.608 47.6857 5.888 47.6857 6.192V9H45.7057ZM64.6413 9V0.599999H66.6813V9H64.6413ZM58.2213 9V0.599999H60.2613V9H58.2213ZM59.0133 5.76L59.0373 3.936H65.7213V5.76H59.0133ZM74.721 9.12C73.977 9.12 73.297 9.012 72.681 8.796C72.065 8.572 71.533 8.264 71.085 7.872C70.637 7.48 70.289 7.02 70.041 6.492C69.793 5.964 69.669 5.388 69.669 4.764C69.669 4.14 69.793 3.564 70.041 3.036C70.289 2.508 70.637 2.048 71.085 1.656C71.541 1.264 72.073 0.96 72.681 0.744C73.297 0.52 73.973 0.408 74.709 0.408C75.445 0.408 76.121 0.52 76.737 0.744C77.353 0.96 77.885 1.264 78.333 1.656C78.781 2.048 79.129 2.508 79.377 3.036C79.625 3.564 79.749 4.14 79.749 4.764C79.749 5.388 79.625 5.964 79.377 6.492C79.129 7.02 78.781 7.48 78.333 7.872C77.885 8.264 77.353 8.572 76.737 8.796C76.121 9.012 75.449 9.12 74.721 9.12ZM74.709 7.2C75.141 7.2 75.537 7.14 75.897 7.02C76.265 6.892 76.581 6.72 76.845 6.504C77.109 6.28 77.313 6.02 77.457 5.724C77.601 5.428 77.673 5.108 77.673 4.764C77.673 4.42 77.601 4.1 77.457 3.804C77.313 3.508 77.109 3.252 76.845 3.036C76.581 2.812 76.265 2.64 75.897 2.52C75.537 2.392 75.141 2.328 74.709 2.328C74.277 2.328 73.881 2.392 73.521 2.52C73.161 2.64 72.845 2.808 72.573 3.024C72.309 3.24 72.105 3.496 71.961 3.792C71.825 4.088 71.757 4.412 71.757 4.764C71.757 5.108 71.825 5.432 71.961 5.736C72.105 6.032 72.309 6.288 72.573 6.504C72.845 6.72 73.161 6.892 73.521 7.02C73.881 7.14 74.277 7.2 74.709 7.2ZM86.2529 9.12C85.6049 9.12 85.0129 9.06 84.4769 8.94C83.9489 8.812 83.4689 8.636 83.0369 8.412C82.6129 8.188 82.2249 7.928 81.8729 7.632L82.9049 6.06C83.4809 6.548 84.0649 6.896 84.6569 7.104C85.2489 7.304 85.8249 7.404 86.3849 7.404C86.6329 7.404 86.8809 7.38 87.1289 7.332C87.3849 7.276 87.5969 7.188 87.7649 7.068C87.9409 6.94 88.0289 6.764 88.0289 6.54C88.0289 6.412 87.9889 6.304 87.9089 6.216C87.8289 6.12 87.7169 6.044 87.5729 5.988C87.4289 5.924 87.2569 5.872 87.0569 5.832C86.8649 5.792 86.6609 5.76 86.4449 5.736C86.2289 5.704 86.0049 5.672 85.7729 5.64C85.2289 5.576 84.7489 5.476 84.3329 5.34C83.9169 5.204 83.5569 5.032 83.2529 4.824C82.9569 4.616 82.7289 4.368 82.5689 4.08C82.4169 3.784 82.3409 3.448 82.3409 3.072C82.3409 2.656 82.4369 2.284 82.6289 1.956C82.8289 1.62 83.1089 1.34 83.4689 1.116C83.8289 0.884 84.2409 0.707999 84.7049 0.588C85.1769 0.468 85.6809 0.408 86.2169 0.408C86.7929 0.408 87.3089 0.464 87.7649 0.576C88.2289 0.688 88.6369 0.84 88.9889 1.032C89.3409 1.224 89.6289 1.44 89.8529 1.68L88.7969 3.048C88.5729 2.848 88.3169 2.684 88.0289 2.556C87.7409 2.42 87.4369 2.316 87.1169 2.244C86.7969 2.172 86.4849 2.136 86.1809 2.136C85.8529 2.136 85.5609 2.168 85.3049 2.232C85.0569 2.288 84.8569 2.372 84.7049 2.484C84.5529 2.596 84.4769 2.74 84.4769 2.916C84.4769 3.076 84.5369 3.208 84.6569 3.312C84.7849 3.416 84.9489 3.5 85.1489 3.564C85.3569 3.628 85.5809 3.68 85.8209 3.72C86.0609 3.76 86.3009 3.792 86.5409 3.816C87.0049 3.88 87.4529 3.96 87.8849 4.056C88.3249 4.152 88.7169 4.288 89.0609 4.464C89.4049 4.64 89.6729 4.876 89.8649 5.172C90.0649 5.468 90.1649 5.852 90.1649 6.324C90.1649 6.916 89.9929 7.42 89.6489 7.836C89.3129 8.252 88.8489 8.572 88.2569 8.796C87.6729 9.012 87.0049 9.12 86.2529 9.12ZM0.776 24V15.6H4.988C5.732 15.6 6.396 15.712 6.98 15.936C7.564 16.152 8.06 16.452 8.468 16.836C8.876 17.22 9.188 17.668 9.404 18.18C9.62 18.684 9.728 19.224 9.728 19.8C9.728 20.384 9.62 20.928 9.404 21.432C9.188 21.936 8.876 22.38 8.468 22.764C8.06 23.148 7.56 23.452 6.968 23.676C6.384 23.892 5.724 24 4.988 24H0.776ZM2.816 22.608L2.54 22.2H4.928C5.384 22.2 5.78 22.136 6.116 22.008C6.452 21.88 6.728 21.708 6.944 21.492C7.168 21.268 7.336 21.012 7.448 20.724C7.56 20.428 7.616 20.12 7.616 19.8C7.616 19.48 7.56 19.176 7.448 18.888C7.336 18.6 7.168 18.348 6.944 18.132C6.728 17.908 6.452 17.732 6.116 17.604C5.78 17.468 5.384 17.4 4.928 17.4H2.504L2.816 17.016V22.608ZM17.1937 24.12C16.4497 24.12 15.7697 24.012 15.1537 23.796C14.5377 23.572 14.0057 23.264 13.5577 22.872C13.1097 22.48 12.7617 22.02 12.5137 21.492C12.2657 20.964 12.1417 20.388 12.1417 19.764C12.1417 19.14 12.2657 18.564 12.5137 18.036C12.7617 17.508 13.1097 17.048 13.5577 16.656C14.0137 16.264 14.5457 15.96 15.1537 15.744C15.7697 15.52 16.4457 15.408 17.1817 15.408C17.9177 15.408 18.5937 15.52 19.2097 15.744C19.8257 15.96 20.3577 16.264 20.8057 16.656C21.2537 17.048 21.6017 17.508 21.8497 18.036C22.0977 18.564 22.2217 19.14 22.2217 19.764C22.2217 20.388 22.0977 20.964 21.8497 21.492C21.6017 22.02 21.2537 22.48 20.8057 22.872C20.3577 23.264 19.8257 23.572 19.2097 23.796C18.5937 24.012 17.9217 24.12 17.1937 24.12ZM17.1817 22.2C17.6137 22.2 18.0097 22.14 18.3697 22.02C18.7377 21.892 19.0537 21.72 19.3177 21.504C19.5817 21.28 19.7857 21.02 19.9297 20.724C20.0737 20.428 20.1457 20.108 20.1457 19.764C20.1457 19.42 20.0737 19.1 19.9297 18.804C19.7857 18.508 19.5817 18.252 19.3177 18.036C19.0537 17.812 18.7377 17.64 18.3697 17.52C18.0097 17.392 17.6137 17.328 17.1817 17.328C16.7497 17.328 16.3537 17.392 15.9937 17.52C15.6337 17.64 15.3177 17.808 15.0457 18.024C14.7817 18.24 14.5777 18.496 14.4337 18.792C14.2977 19.088 14.2297 19.412 14.2297 19.764C14.2297 20.108 14.2977 20.432 14.4337 20.736C14.5777 21.032 14.7817 21.288 15.0457 21.504C15.3177 21.72 15.6337 21.892 15.9937 22.02C16.3537 22.14 16.7497 22.2 17.1817 22.2ZM34.3389 24.12C33.6909 24.12 33.0989 24.06 32.5629 23.94C32.0349 23.812 31.5549 23.636 31.1229 23.412C30.6989 23.188 30.3109 22.928 29.9589 22.632L30.9909 21.06C31.5669 21.548 32.1509 21.896 32.7429 22.104C33.3349 22.304 33.9109 22.404 34.4709 22.404C34.7189 22.404 34.9669 22.38 35.2149 22.332C35.4709 22.276 35.6829 22.188 35.8509 22.068C36.0269 21.94 36.1149 21.764 36.1149 21.54C36.1149 21.412 36.0749 21.304 35.9949 21.216C35.9149 21.12 35.8029 21.044 35.6589 20.988C35.5149 20.924 35.3429 20.872 35.1429 20.832C34.9509 20.792 34.7469 20.76 34.5309 20.736C34.3149 20.704 34.0909 20.672 33.8589 20.64C33.3149 20.576 32.8349 20.476 32.4189 20.34C32.0029 20.204 31.6429 20.032 31.3389 19.824C31.0429 19.616 30.8149 19.368 30.6549 19.08C30.5029 18.784 30.4269 18.448 30.4269 18.072C30.4269 17.656 30.5229 17.284 30.7149 16.956C30.9149 16.62 31.1949 16.34 31.5549 16.116C31.9149 15.884 32.3269 15.708 32.7909 15.588C33.2629 15.468 33.7669 15.408 34.3029 15.408C34.8789 15.408 35.3949 15.464 35.8509 15.576C36.3149 15.688 36.7229 15.84 37.0749 16.032C37.4269 16.224 37.7149 16.44 37.9389 16.68L36.8829 18.048C36.6589 17.848 36.4029 17.684 36.1149 17.556C35.8269 17.42 35.5229 17.316 35.2029 17.244C34.8829 17.172 34.5709 17.136 34.2669 17.136C33.9389 17.136 33.6469 17.168 33.3909 17.232C33.1429 17.288 32.9429 17.372 32.7909 17.484C32.6389 17.596 32.5629 17.74 32.5629 17.916C32.5629 18.076 32.6229 18.208 32.7429 18.312C32.8709 18.416 33.0349 18.5 33.2349 18.564C33.4429 18.628 33.6669 18.68 33.9069 18.72C34.1469 18.76 34.3869 18.792 34.6269 18.816C35.0909 18.88 35.5389 18.96 35.9709 19.056C36.4109 19.152 36.8029 19.288 37.1469 19.464C37.4909 19.64 37.7589 19.876 37.9509 20.172C38.1509 20.468 38.2509 20.852 38.2509 21.324C38.2509 21.916 38.0789 22.42 37.7349 22.836C37.3989 23.252 36.9349 23.572 36.3429 23.796C35.7589 24.012 35.0909 24.12 34.3389 24.12ZM39.9351 24L43.8711 15.6H45.7431L49.6551 24H47.5551L45.3231 19.224C45.2511 19.048 45.1751 18.876 45.0951 18.708C45.0231 18.54 44.9551 18.376 44.8911 18.216C44.8351 18.056 44.7791 17.896 44.7231 17.736C44.6671 17.568 44.6151 17.404 44.5671 17.244L44.9991 17.232C44.9431 17.408 44.8871 17.58 44.8311 17.748C44.7751 17.916 44.7111 18.08 44.6391 18.24C44.5751 18.4 44.5071 18.564 44.4351 18.732C44.3631 18.892 44.2871 19.06 44.2071 19.236L41.9871 24H39.9351ZM41.7711 22.476L42.4311 20.94H47.1351L47.5071 22.476H41.7711ZM51.9987 24V15.6H56.4867C57.1747 15.6 57.7587 15.684 58.2387 15.852C58.7187 16.02 59.0787 16.256 59.3187 16.56C59.5587 16.864 59.6787 17.232 59.6787 17.664C59.6787 18.136 59.5467 18.536 59.2827 18.864C59.0187 19.192 58.6187 19.42 58.0827 19.548L58.1187 19.32C58.4787 19.4 58.8107 19.532 59.1147 19.716C59.4267 19.892 59.6707 20.128 59.8467 20.424C60.0307 20.712 60.1227 21.056 60.1227 21.456C60.1227 21.944 60.0267 22.352 59.8347 22.68C59.6427 23 59.3787 23.26 59.0427 23.46C58.7147 23.652 58.3507 23.792 57.9507 23.88C57.5507 23.96 57.1507 24 56.7507 24H51.9987ZM53.9187 22.296H56.7627C57.0267 22.296 57.2587 22.264 57.4587 22.2C57.6667 22.128 57.8267 22.024 57.9387 21.888C58.0587 21.744 58.1187 21.568 58.1187 21.36C58.1187 21.136 58.0467 20.96 57.9027 20.832C57.7587 20.696 57.5747 20.6 57.3507 20.544C57.1347 20.48 56.9187 20.448 56.7027 20.448H53.9187V22.296ZM53.9187 18.924H56.4267C56.6747 18.924 56.8907 18.892 57.0747 18.828C57.2667 18.756 57.4147 18.66 57.5187 18.54C57.6227 18.42 57.6747 18.268 57.6747 18.084C57.6747 17.812 57.5507 17.616 57.3027 17.496C57.0547 17.368 56.7387 17.304 56.3547 17.304H53.9187V18.924ZM67.6078 24.12C66.8638 24.12 66.1838 24.012 65.5678 23.796C64.9518 23.572 64.4198 23.264 63.9718 22.872C63.5238 22.48 63.1758 22.02 62.9277 21.492C62.6798 20.964 62.5558 20.388 62.5558 19.764C62.5558 19.14 62.6798 18.564 62.9277 18.036C63.1758 17.508 63.5238 17.048 63.9718 16.656C64.4278 16.264 64.9598 15.96 65.5678 15.744C66.1838 15.52 66.8598 15.408 67.5958 15.408C68.3318 15.408 69.0078 15.52 69.6238 15.744C70.2398 15.96 70.7718 16.264 71.2198 16.656C71.6678 17.048 72.0158 17.508 72.2638 18.036C72.5118 18.564 72.6358 19.14 72.6358 19.764C72.6358 20.388 72.5118 20.964 72.2638 21.492C72.0158 22.02 71.6678 22.48 71.2198 22.872C70.7718 23.264 70.2398 23.572 69.6238 23.796C69.0078 24.012 68.3358 24.12 67.6078 24.12ZM67.5958 22.2C68.0278 22.2 68.4238 22.14 68.7838 22.02C69.1518 21.892 69.4678 21.72 69.7318 21.504C69.9958 21.28 70.1998 21.02 70.3438 20.724C70.4878 20.428 70.5598 20.108 70.5598 19.764C70.5598 19.42 70.4878 19.1 70.3438 18.804C70.1998 18.508 69.9958 18.252 69.7318 18.036C69.4678 17.812 69.1518 17.64 68.7838 17.52C68.4238 17.392 68.0278 17.328 67.5958 17.328C67.1638 17.328 66.7678 17.392 66.4078 17.52C66.0478 17.64 65.7318 17.808 65.4598 18.024C65.1958 18.24 64.9918 18.496 64.8478 18.792C64.7118 19.088 64.6438 19.412 64.6438 19.764C64.6438 20.108 64.7118 20.432 64.8478 20.736C64.9918 21.032 65.1958 21.288 65.4598 21.504C65.7318 21.72 66.0478 21.892 66.4078 22.02C66.7678 22.14 67.1638 22.2 67.5958 22.2ZM75.6237 24V15.6H80.1957C80.8277 15.6 81.3717 15.712 81.8277 15.936C82.2917 16.16 82.6477 16.472 82.8957 16.872C83.1517 17.272 83.2797 17.74 83.2797 18.276C83.2797 18.82 83.1437 19.304 82.8717 19.728C82.5997 20.152 82.2277 20.488 81.7557 20.736C81.2917 20.976 80.7717 21.096 80.1957 21.096H77.5677V24H75.6237ZM81.3717 24L78.7197 20.208L80.8437 19.908L83.7357 24H81.3717ZM77.5677 19.536H79.9797C80.2037 19.536 80.4117 19.488 80.6037 19.392C80.7957 19.296 80.9477 19.16 81.0597 18.984C81.1717 18.808 81.2277 18.612 81.2277 18.396C81.2277 18.172 81.1677 17.98 81.0477 17.82C80.9357 17.652 80.7797 17.524 80.5797 17.436C80.3797 17.348 80.1557 17.304 79.9077 17.304H77.5677V19.536Z" fill="#F9F9FE"/>
</svg>
